<?xml version="1.0" encoding="UTF-8"?>
<svg width="858px" height="659px" viewBox="0 0 858 659" version="1.1" xmlns="http://www.w3.org/2000/svg" xmlns:xlink="http://www.w3.org/1999/xlink">
    <!-- Generator: Sketch 52.2 (67145) - http://www.bohemiancoding.com/sketch -->
    <title>Group 39</title>
    <desc>Created with Sketch.</desc>
    <defs>
        <polygon id="path-1" points="0.000508880084 0.93345814 999.450663 0.93345814 999.450663 36.3601945 0.000508880084 36.3601945"></polygon>
    </defs>
    <g id="Assets---images" stroke="none" stroke-width="1" fill="none" fill-rule="evenodd">
        <g id="Group-39" transform="translate(-70.000000, 0.000000)">
            <g id="Group-3" transform="translate(0.000000, 635.568513)">
                <mask id="mask-2" fill="white">
                    <use xlink:href="#path-1"></use>
                </mask>
                <g id="Clip-2"></g>
            </g>
            <path d="M893.060774,658.892128 L821.22494,658.892128 C808.854805,658.892128 798.833819,648.911109 798.833819,636.59031 L798.833819,427.549632 C798.833819,415.23393 808.854805,405.247813 821.22494,405.247813 L893.060774,405.247813 C905.430909,405.247813 915.451895,415.23393 915.451895,427.549632 L915.451895,636.59031 C915.451895,648.911109 905.430909,658.892128 893.060774,658.892128" id="Fill-4" fill="#0B1829"></path>
            <path d="M178.77506,658.892128 L106.939226,658.892128 C94.5690912,658.892128 84.548105,648.911109 84.548105,636.59031 L84.548105,427.549632 C84.548105,415.23393 94.5690912,405.247813 106.939226,405.247813 L178.77506,405.247813 C191.145195,405.247813 201.166181,415.23393 201.166181,427.549632 L201.166181,636.59031 C201.166181,648.911109 191.145195,658.892128 178.77506,658.892128" id="Fill-6" fill="#0B1829"></path>
            <polygon id="Fill-8" fill="#231F20" points="253.644315 580.174927 734.693878 580.174927 734.693878 518.950437 253.644315 518.950437"></polygon>
            <path d="M270.109872,172.515204 L299.950437,86.3973541 C303.93428,74.8665267 314.559561,66.9286015 326.755936,66.2171357 L490.241425,57.1916842 C495.74025,56.8613608 501.341095,56.8613608 506.845021,57.1916842 L670.32541,66.2171357 C682.521784,66.9286015 693.147066,74.8665267 697.130909,86.3973541 L726.971474,172.515204 L270.109872,172.515204 Z M898.664393,289.398866 L878.785986,261.133348 C878.785986,252.392482 875.893747,243.839647 870.486738,236.88761 C870.246994,236.557287 870.01235,236.226964 869.726697,235.89664 L867.400663,233.060941 L848.756686,210.421084 C843.538413,204.089038 839.223008,197.091264 835.851279,189.625956 L781.250696,67.7264595 C770.242844,43.104662 747.660932,25.2875263 720.758515,19.8956321 C678.15537,11.2970601 604.431321,0.706383873 498.540673,0 C392.650025,0.706383873 318.925976,11.2970601 276.322831,19.8956321 C249.425514,25.2875263 226.843603,43.104662 215.83575,67.7264595 L161.230066,189.625956 C157.863439,197.091264 153.542933,204.089038 148.32466,210.421084 L129.680683,233.060941 L127.35975,235.89664 C127.068996,236.226964 126.834352,236.557287 126.599708,236.88761 C121.187599,243.839647 118.295359,252.392482 118.295359,261.133348 L98.4169522,289.398866 C83.3793478,310.808904 76.5950825,336.853633 79.2985867,362.847543 L99.0800758,554.602815 C100.600159,569.111634 112.888351,580.174927 127.548485,580.174927 L285.575956,580.174927 C297.104106,580.174927 308.060949,575.113356 315.559348,566.367409 L315.845001,565.991349 L681.241445,565.991349 L681.527099,566.367409 C689.020396,575.113356 699.977239,580.174927 711.51049,580.174927 L869.537961,580.174927 C884.198095,580.174927 896.481186,569.111634 898.00127,554.602815 L917.78786,362.847543 C920.486263,336.853633 913.701998,310.808904 898.664393,289.398866 Z" id="Fill-10" fill="#DCDDE7"></path>
            <path d="M914.87456,362.847543 L895.230366,554.602815 C893.720833,569.111634 881.517929,580.174927 866.959546,580.174927 L710.028883,580.174927 C698.580746,580.174927 687.694884,575.113356 680.253595,566.367409 L679.969924,565.991349 L498.542274,565.991349 L498.542274,172.515204 L725.387623,172.515204 L695.75417,86.3973541 C691.792912,74.8665267 681.241377,66.9286015 669.134718,66.2171357 L506.78392,57.1916842 C504.05359,57.0493911 501.318194,56.952835 498.542274,56.952835 L498.542274,0 C603.69291,0.706383873 676.905268,11.2970601 719.217787,19.8956321 C745.928419,25.2875263 768.353598,43.104662 779.285049,67.7264595 L833.511735,189.625956 C836.854997,197.091264 841.14045,204.089038 846.322505,210.421084 L864.842147,233.060941 L867.146971,235.89664 C867.430642,236.226964 867.668722,236.557287 867.901738,236.88761 C873.271218,243.839647 876.143383,252.392482 876.143383,261.133348 L895.883822,289.398866 C910.822122,310.808904 917.5593,336.853633 914.87456,362.847543" id="Fill-11" fill="#C8C9D9"></path>
            <path d="M271.01278,169.951643 L300.735273,83.7710603 C304.703353,72.2318332 315.286593,64.2881256 327.434709,63.5761415 L490.273324,54.5441154 C495.750392,54.2135514 501.329075,54.2135514 506.811224,54.5441154 L669.644758,63.5761415 C681.792874,64.2881256 692.376114,72.2318332 696.344194,83.7710603 L726.066687,169.951643 L271.01278,169.951643 Z M760.895352,69.9585699 C752.766123,52.0318288 735.709985,39.8314737 716.143947,37.9854008 C662.277644,32.9252285 553.259605,23.3236152 498.539734,23.3236152 C443.819862,23.3236152 334.806904,32.9252285 280.93552,37.9854008 C261.374564,39.8314737 244.313345,52.0318288 236.189197,69.9585699 L180.758017,192.419825 C180.758017,192.419825 209.489761,190.904316 251.543277,189.012473 C298.230455,186.886692 361.364078,184.328635 419.864041,182.909753 C447.930203,182.202854 474.959889,181.775664 498.539734,181.775664 C522.119578,181.775664 549.149264,182.202854 577.220507,182.909753 C635.72047,184.328635 698.854093,186.886692 745.53619,189.012473 C787.594787,190.904316 816.326531,192.419825 816.326531,192.419825 L760.895352,69.9585699 Z" id="Fill-12" fill="#0E1133"></path>
            <path d="M524.781341,278.425656 C524.781341,284.061082 513.686034,288.629738 500,288.629738 C486.313966,288.629738 475.218659,284.061082 475.218659,278.425656 C475.218659,272.79023 486.313966,268.221574 500,268.221574 C513.686034,268.221574 524.781341,272.79023 524.781341,278.425656" id="Fill-13" fill="#0B1829"></path>
            <path d="M179.85718,167.903007 C175.31349,160.785146 156.76179,170.25185 148.275483,161.585077 C142.320805,155.501522 148.11248,147.430877 143.538228,141.046711 C132.43879,125.572878 73.2740467,138.020219 70.1056894,158.426112 C68.0987235,171.347297 89.0852704,184.018822 93.791962,186.856795 C122.332647,204.083344 163.74542,201.19442 176.69901,182.118348 C177.162548,181.440699 182.938942,172.733166 179.85718,167.903007" id="Fill-14" fill="#DCDDE7"></path>
            <path d="M817.22681,167.903007 C821.770339,160.785146 840.326479,170.25185 848.812487,161.585077 C854.761862,155.501522 848.97039,147.430877 853.549575,141.046711 C864.643528,125.572878 923.81128,138.020219 926.979525,158.426112 C928.981327,171.347297 907.99552,184.018822 903.288994,186.856795 C874.754409,204.083344 833.343095,201.19442 820.384868,182.118348 C819.92644,181.440699 814.145156,172.733166 817.22681,167.903007" id="Fill-15" fill="#C8C9D9"></path>
            <polygon id="Fill-16" fill="#0B1829" points="498.542274 486.880466 294.460641 486.880466 319.378267 542.274052 498.542274 542.274052 677.706281 542.274052 702.623907 486.880466"></polygon>
            <path d="M871.720117,234.229226 L838.813253,277.679785 C822.60197,299.15851 797.04626,311.953353 770.399602,311.953353 L229.600398,311.953353 C202.95374,311.953353 177.39803,299.15851 161.186747,277.679785 L128.279883,234.229226 C128.514386,233.891836 128.753987,233.554447 129.039469,233.217058 L131.359007,230.3207 L164.928597,274.731521 C180.242651,295.006026 204.42703,307.12609 229.600398,307.12609 L770.399602,307.12609 C795.57297,307.12609 819.757349,295.006026 835.071403,274.731521 L868.640993,230.3207 L870.960531,233.217058 C871.246013,233.554447 871.485614,233.891836 871.720117,234.229226" id="Fill-17" fill="#DCDDE7"></path>
            <path d="M363.431307,314.868805 L463.84776,314.868805 C476.570832,314.868805 486.880466,325.21355 486.880466,337.979954 L486.880466,360.695206 C486.880466,378.520869 472.481822,392.973692 454.711538,392.973692 L413.81119,392.973692 C413.81119,392.973692 355.893796,401.827396 337.047456,352.201409 C330.186323,334.139236 344.169917,314.868805 363.431307,314.868805" id="Fill-18" fill="#0B1829"></path>
            <path d="M295.205272,372.748143 L234.50047,372.748143 C226.642947,372.748143 218.83096,374.338727 211.585647,377.338687 C204.340333,380.378916 196.573882,381.924198 188.812491,381.924198 C187.208606,381.924198 185.609779,381.878897 184.056489,381.737959 C183.818689,381.737959 183.631485,381.687624 183.398744,381.687624 C156.9068,379.301749 107.449437,368.489809 107.874442,320.878013 L138.080115,305.475529 C148.578737,300.094727 160.195525,297.33134 172.009637,297.376641 C178.364465,297.376641 186.034784,297.517579 194.550052,297.754153 C220.622051,298.453809 254.359309,300.376602 280.709585,305.334591 C289.558784,307.020811 296.100817,314.18347 297.416307,323.032348 C297.795775,325.32762 298.357388,327.572557 299.252934,329.445016 C301.747305,334.689914 307.580997,345.59749 308.947083,357.627535 C309.888164,365.726423 303.391667,372.748143 295.205272,372.748143" id="Fill-19" fill="#FFFFFF"></path>
            <path d="M294.999187,372.706928 L233.389978,372.706928 C225.415391,372.706928 217.487018,374.304655 210.13376,377.318091 C202.780502,380.371976 194.898344,381.924198 187.02132,381.924198 C185.393539,381.924198 183.770893,381.878693 182.194461,381.737123 L175.411184,372.661423 C162.137321,354.793165 163.282416,330.2458 178.18406,313.646623 L192.844361,297.376093 C219.304792,298.078891 253.544683,300.010321 280.287537,304.99058 C289.268576,306.684373 295.908075,313.879204 297.243164,322.767828 C297.628285,325.073409 298.198265,327.32843 299.107153,329.209299 C301.638686,334.477755 307.559291,345.434324 308.94573,357.518403 C309.900831,365.653668 303.307547,372.706928 294.999187,372.706928" id="Fill-20" fill="#0B1829"></path>
            <path d="M227.405248,345.48105 C227.405248,359.166912 216.309769,370.262391 202.623907,370.262391 C188.938044,370.262391 177.842566,359.166912 177.842566,345.48105 C177.842566,331.795187 188.938044,320.699708 202.623907,320.699708 C216.309769,320.699708 227.405248,331.795187 227.405248,345.48105" id="Fill-21" fill="#FFFFFF"></path>
            <path d="M279.883382,345.48105 C279.883382,352.728119 274.010918,358.600583 266.763848,358.600583 C259.521454,358.600583 253.644315,352.728119 253.644315,345.48105 C253.644315,338.23398 259.521454,332.361516 266.763848,332.361516 C274.010918,332.361516 279.883382,338.23398 279.883382,345.48105" id="Fill-22" fill="#FFFFFF"></path>
            <path d="M633.653241,314.868805 L533.236788,314.868805 C520.513716,314.868805 510.204082,325.218589 510.204082,337.984865 L510.204082,360.694748 C510.204082,378.520233 524.602726,392.972912 542.37301,392.972912 L583.273358,392.972912 C583.273358,392.972912 641.190752,401.831669 660.037092,352.201036 C666.898225,334.139043 652.914631,314.868805 633.653241,314.868805" id="Fill-23" fill="#0B1829"></path>
            <path d="M704.794728,372.748143 L765.49953,372.748143 C773.357053,372.748143 781.16904,374.338727 788.414353,377.333654 C795.659667,380.378916 803.426118,381.924198 811.187509,381.924198 C812.791394,381.924198 814.390221,381.873863 815.943511,381.737959 C816.181311,381.737959 816.368515,381.687624 816.601256,381.687624 C843.0932,379.301749 892.550563,368.48981 892.125558,320.878014 L861.919885,305.47553 C851.421263,300.089694 839.799415,297.331341 827.990363,297.376642 C821.635535,297.376642 813.965216,297.51758 805.449948,297.754154 C779.377949,298.45381 745.640691,300.37157 719.290415,305.334592 C710.441216,307.020812 703.899183,314.18347 702.583693,323.032348 C702.204225,325.32762 701.642612,327.572558 700.747066,329.445016 C698.252695,334.684881 692.419003,345.592457 691.052917,357.627535 C690.111836,365.726423 696.608333,372.748143 704.794728,372.748143" id="Fill-24" fill="#FFFFFF"></path>
            <path d="M705.000813,372.706928 L766.610022,372.706928 C774.584609,372.706928 782.512982,374.304655 789.86624,377.313035 C797.219498,380.371976 805.101656,381.924198 812.97868,381.924198 C814.606461,381.924198 816.229107,381.873637 817.805539,381.737123 L824.588816,372.661423 C837.862679,354.793165 836.717584,330.2458 821.81594,313.641567 L807.155639,297.376093 C780.695208,298.078891 746.455317,300.005265 719.712463,304.99058 C710.731424,306.684373 704.091925,313.879204 702.756836,322.767828 C702.371715,325.073409 701.801735,327.32843 700.892847,329.209299 C698.361314,334.472699 692.440709,345.429268 691.05427,357.518403 C690.099169,365.653668 696.692453,372.706928 705.000813,372.706928" id="Fill-25" fill="#0B1829"></path>
            <path d="M772.594752,345.48105 C772.594752,359.166912 783.690231,370.262391 797.376093,370.262391 C811.061956,370.262391 822.157434,359.166912 822.157434,345.48105 C822.157434,331.78979 811.061956,320.699708 797.376093,320.699708 C783.690231,320.699708 772.594752,331.78979 772.594752,345.48105" id="Fill-26" fill="#FFFFFF"></path>
            <path d="M720.116618,345.48105 C720.116618,352.723444 725.989082,358.600583 733.236152,358.600583 C740.478546,358.600583 746.355685,352.723444 746.355685,345.48105 C746.355685,338.23398 740.478546,332.361516 733.236152,332.361516 C725.989082,332.361516 720.116618,338.23398 720.116618,345.48105" id="Fill-27" fill="#FFFFFF"></path>
            <polygon id="Fill-28" fill="#0B1829" points="364.431487 472.303207 632.653061 472.303207 632.653061 425.655977 364.431487 425.655977"></polygon>
            <path d="M142.857143,483.965015 L259.499731,483.965015 C262.969291,483.965015 266.091896,485.952036 267.414351,488.994662 L270.481643,496.054318 C272.80474,501.40399 268.66641,507.28863 262.567024,507.28863 L171.679634,507.28863 C162.980592,507.28863 154.92015,502.965904 150.429835,495.891918 L142.857143,483.965015 Z" id="Fill-29" fill="#0B1829"></path>
            <path d="M163.265306,521.865889 L272.449302,521.865889 C278.163424,521.865889 282.798834,525.782296 282.798834,530.614394 C282.798834,535.442194 278.163424,539.358601 272.449302,539.358601 L211.1815,539.358601 C199.997493,539.358601 189.072988,536.542743 179.79708,531.267845 L163.265306,521.865889 Z" id="Fill-30" fill="#0B1829"></path>
            <path d="M857.142857,483.965015 L740.500269,483.965015 C737.030709,483.965015 733.908104,485.952036 732.585649,488.994662 L729.518357,496.054318 C727.19526,501.40399 731.33359,507.28863 737.432976,507.28863 L828.320366,507.28863 C837.019408,507.28863 845.07985,502.965904 849.570165,495.891918 L857.142857,483.965015 Z" id="Fill-31" fill="#0B1829"></path>
            <path d="M833.819242,521.865889 L724.635246,521.865889 C718.916036,521.865889 714.285714,525.782296 714.285714,530.614394 C714.285714,535.442194 718.916036,539.358601 724.635246,539.358601 L785.903048,539.358601 C797.087055,539.358601 808.011561,536.542743 817.287468,531.267845 L833.819242,521.865889 Z" id="Fill-32" fill="#0B1829"></path>
            <path d="M230.3207,405.247813 C230.3207,408.470155 226.403897,411.078717 221.574344,411.078717 C216.744791,411.078717 212.827988,408.470155 212.827988,405.247813 C212.827988,402.031374 216.744791,399.41691 221.574344,399.41691 C226.403897,399.41691 230.3207,402.031374 230.3207,405.247813" id="Fill-33" fill="#888E9B"></path>
            <path d="M795.918367,405.247813 C795.918367,408.470155 792.001565,411.078717 787.172012,411.078717 C782.342459,411.078717 778.425656,408.470155 778.425656,405.247813 C778.425656,402.031374 782.342459,399.41691 787.172012,399.41691 C792.001565,399.41691 795.918367,402.031374 795.918367,405.247813" id="Fill-34" fill="#888E9B"></path>
            <path d="M669.544948,64.5283951 L506.821388,55.6185813 C501.307056,55.3185876 495.777492,55.3185876 490.26316,55.6185813 L327.544678,64.5283951 C315.378621,65.1933812 304.837412,73.0382173 300.861609,84.3729804 L271.137026,169.09621 L498.544813,169.09621 L725.947522,169.09621 L696.222939,84.3729804 C692.247136,73.0382173 681.705928,65.1933812 669.544948,64.5283951" id="Fill-35" fill="#DCDDE7"></path>
            <path d="M419.825073,154.380001 L419.825073,183.549408 C361.055603,184.933937 297.631126,187.425098 250.728863,189.504373 L250.728863,154.380001 C250.728863,125.577818 274.937964,102.040816 304.516658,102.040816 L365.99134,102.040816 C395.610867,102.040816 419.825073,125.577818 419.825073,154.380001" id="Fill-36" fill="#0E1133"></path>
            <path d="M749.271137,154.380001 L749.271137,189.504373 C702.368874,187.425098 638.944397,184.933937 580.174927,183.549408 L580.174927,154.380001 C580.174927,125.577818 604.384029,102.040816 634.00866,102.040816 L695.483342,102.040816 C725.056931,102.040816 749.271137,125.577818 749.271137,154.380001" id="Fill-37" fill="#0E1133"></path>
            <path d="M537.129192,84.7629791 L515.118037,84.7629791 L515.118037,73.4088323 L547.9813,73.4088323 L547.9813,49.5626822 L452.0187,49.5626822 L452.0187,73.4088323 L484.881963,73.4088323 L484.881963,84.7629791 L462.865605,84.7629791 C451.977081,84.7629791 443.148688,93.0502854 443.148688,103.276343 L443.148688,104.956268 L556.851312,104.956268 L556.851312,103.276343 C556.851312,93.0502854 548.022919,84.7629791 537.129192,84.7629791" id="Fill-38" fill="#0E1133"></path>
        </g>
    </g>
</svg>