<?xml version="1.0" encoding="UTF-8"?>
<svg width="100px" height="101px" viewBox="0 0 100 101" version="1.1" xmlns="http://www.w3.org/2000/svg" xmlns:xlink="http://www.w3.org/1999/xlink">
    <!-- Generator: Sketch 52.2 (67145) - http://www.bohemiancoding.com/sketch -->
    <title>Group 3</title>
    <desc>Created with Sketch.</desc>
    <g id="Parking-Meter" stroke="none" stroke-width="1" fill="none" fill-rule="evenodd">
        <g id="Group-3" transform="translate(0.000000, 0.500000)">
            <circle id="Oval" fill="#F2F3F4" cx="50" cy="50" r="50"></circle>
            <path d="M61.6785714,48.6785714 L53.7857143,48.6785714 C53.5293143,48.6785714 53.3214286,48.4706857 53.3214286,48.2142857 L53.3214286,40.3214286 C53.3214286,39.0394287 52.2819999,38 51,38 C49.7180001,38 48.6785714,39.0394287 48.6785714,40.3214286 L48.6785714,48.2142857 C48.6785714,48.4706857 48.4706857,48.6785714 48.2142857,48.6785714 L40.3214286,48.6785714 C39.0394287,48.6785714 38,49.7180001 38,51 C38,52.2819999 39.0394287,53.3214286 40.3214286,53.3214286 L48.2142857,53.3214286 C48.4706857,53.3214286 48.6785714,53.5293143 48.6785714,53.7857143 L48.6785714,61.6785714 C48.6785714,62.9605713 49.7180001,64 51,64 C52.2819999,64 53.3214286,62.9605713 53.3214286,61.6785714 L53.3214286,53.7857143 C53.3214286,53.5293143 53.5293143,53.3214286 53.7857143,53.3214286 L61.6785714,53.3214286 C62.9605713,53.3214286 64,52.2819999 64,51 C64,49.7180001 62.9605713,48.6785714 61.6785714,48.6785714 Z" id="Path" fill="#000000"></path>
        </g>
    </g>
</svg>