<?xml version="1.0" encoding="UTF-8"?>
<svg width="100px" height="100px" viewBox="0 0 100 100" version="1.1" xmlns="http://www.w3.org/2000/svg" xmlns:xlink="http://www.w3.org/1999/xlink">
    <!-- Generator: Sketch 52.2 (67145) - http://www.bohemiancoding.com/sketch -->
    <title>code</title>
    <desc>Created with Sketch.</desc>
    <g id="Assets" stroke="none" stroke-width="1" fill="none" fill-rule="evenodd">
        <g id="code">
            <g id="Group-5" fill="#F2F3F4">
                <circle id="Oval" cx="50" cy="50" r="50"></circle>
            </g>
            <g id="noun_text-field_116281" transform="translate(30.000000, 41.000000)" fill="#000000">
                <path d="M4.53333333,12.2962963 C4.23893333,12.2962963 4,12.5285926 4,12.8148148 C4,13.101037 4.23893333,13.3333333 4.53333333,13.3333333 L8.8,13.3333333 C9.0944,13.3333333 9.33333333,13.101037 9.33333333,12.8148148 C9.33333333,12.5285926 9.0944,12.2962963 8.8,12.2962963 L7.2,12.2962963 L7.2,5.03703704 L8.8,5.03703704 C9.0944,5.03703704 9.33333333,4.80474074 9.33333333,4.51851852 C9.33333333,4.2322963 9.0944,4 8.8,4 L4.53333333,4 C4.23893333,4 4,4.2322963 4,4.51851852 C4,4.80474074 4.23893333,5.03703704 4.53333333,5.03703704 L6.13333333,5.03703704 L6.13333333,12.2962963 L4.53333333,12.2962963 Z" id="Path"></path>
                <path d="M38.8888889,0 L1.11111111,0 C0.497333333,0 0,0.4849 0,1.08333333 L0,16.25 C0,16.8484333 0.497333333,17.3333333 1.11111111,17.3333333 L38.8888889,17.3333333 C39.5026667,17.3333333 40,16.8484333 40,16.25 L40,1.08333333 C40,0.4849 39.5026667,0 38.8888889,0 Z M37.7777778,15.1666667 L2.22222222,15.1666667 L2.22222222,2.16666667 L37.7777778,2.16666667 L37.7777778,15.1666667 Z" id="Shape" fill-rule="nonzero"></path>
            </g>
        </g>
    </g>
</svg>