<?xml version="1.0" encoding="UTF-8"?>
<svg width="43px" height="25px" viewBox="0 0 43 25" version="1.1" xmlns="http://www.w3.org/2000/svg" xmlns:xlink="http://www.w3.org/1999/xlink">
    <!-- Generator: Sketch 52.2 (67145) - http://www.bohemiancoding.com/sketch -->
    <title>noun_down arrow_1157119</title>
    <desc>Created with Sketch.</desc>
    <g id="Assets" stroke="none" stroke-width="1" fill="none" fill-rule="evenodd">
        <g id="noun_down-arrow_1157119" fill="#000000">
            <path d="M41.5874233,0.848032564 C40.5010225,-0.282677521 38.7627812,-0.282677521 37.7198364,0.848032564 L21.206544,18.0348259 L4.69325153,0.848032564 C3.60685072,-0.282677521 1.86860941,-0.282677521 0.825664622,0.848032564 C0.304192229,1.39077341 0,2.11442786 0,2.88331072 C0,3.65219358 0.304192229,4.37584803 0.825664622,4.91858887 L19.2944785,24.1406603 C19.8159509,24.6834012 20.5112474,25 21.25,25 C21.9887526,25 22.6840491,24.6834012 23.2055215,24.1406603 L41.6743354,4.91858887 C42.1958078,4.37584803 42.5,3.65219358 42.5,2.88331072 C42.4130879,2.06919946 42.1088957,1.39077341 41.5874233,0.848032564 Z" id="Path"></path>
        </g>
    </g>
</svg>