<?xml version="1.0" encoding="UTF-8"?>
<svg width="224px" height="222px" viewBox="0 0 224 222" version="1.1" xmlns="http://www.w3.org/2000/svg" xmlns:xlink="http://www.w3.org/1999/xlink">
    <!-- Generator: Sketch 52.2 (67145) - http://www.bohemiancoding.com/sketch -->
    <title>Group 4</title>
    <desc>Created with Sketch.</desc>
    <g id="Design-Screen" stroke="none" stroke-width="1" fill="none" fill-rule="evenodd" stroke-linecap="square">
        <g id="iPhone-8" transform="translate(-73.000000, -260.000000)" stroke="#FFFFFF" stroke-width="3">
            <g id="Group-4" transform="translate(75.000000, 261.000000)">
                <g id="Group-3">
                    <path d="M0.977777778,0.544554455 L62.0888889,0.544554455" id="Line"></path>
                    <path d="M-33.0115114,35.0673731 L35.0556762,35.1887919" id="Line" transform="translate(1.022082, 35.128083) rotate(89.000000) translate(-1.022082, -35.128083) "></path>
                </g>
                <g id="Group-3" transform="translate(187.733333, 35.396040) scale(-1, 1) translate(-187.733333, -35.396040) translate(156.444444, 0.000000)">
                    <path d="M0.977777778,0.544554455 L62.0888889,0.544554455" id="Line"></path>
                    <path d="M-33.0115114,35.0673731 L35.0556762,35.1887919" id="Line" transform="translate(1.022082, 35.128083) rotate(89.000000) translate(-1.022082, -35.128083) "></path>
                </g>
                <g id="Group-3" transform="translate(32.266667, 184.603960) scale(1, -1) translate(-32.266667, -184.603960) translate(0.977778, 149.207921)">
                    <path d="M0.977777778,0.544554455 L62.0888889,0.544554455" id="Line"></path>
                    <path d="M-33.0115114,35.0673731 L35.0556762,35.1887919" id="Line" transform="translate(1.022082, 35.128083) rotate(89.000000) translate(-1.022082, -35.128083) "></path>
                </g>
                <g id="Group-3" transform="translate(188.711111, 184.603960) scale(-1, -1) translate(-188.711111, -184.603960) translate(157.422222, 149.207921)">
                    <path d="M0.977777778,0.544554455 L62.0888889,0.544554455" id="Line"></path>
                    <path d="M-33.0115114,35.0673731 L35.0556762,35.1887919" id="Line" transform="translate(1.022082, 35.128083) rotate(89.000000) translate(-1.022082, -35.128083) "></path>
                </g>
            </g>
        </g>
    </g>
</svg>