<?xml version="1.0" encoding="UTF-8"?>
<svg width="100px" height="100px" viewBox="0 0 100 100" version="1.1" xmlns="http://www.w3.org/2000/svg" xmlns:xlink="http://www.w3.org/1999/xlink">
    <!-- Generator: Sketch 52.2 (67145) - http://www.bohemiancoding.com/sketch -->
    <title>light</title>
    <desc>Created with Sketch.</desc>
    <g id="Assets" stroke="none" stroke-width="1" fill="none" fill-rule="evenodd">
        <g id="light">
            <g id="Group-5">
                <circle id="Oval" fill="#F2F3F4" cx="50" cy="50" r="50"></circle>
                <g id="noun_Flashlight_2192921" transform="translate(40.000000, 32.000000)" fill="#121212">
                    <g id="Group">
                        <path d="M9.66347826,21.8550268 C10.1434783,21.8550268 10.5330435,21.4711986 10.5330435,20.9963506 L10.5330435,17.4302683 C10.5330435,16.9554204 10.1434783,16.5715921 9.66347826,16.5715921 C9.18347826,16.5715921 8.79391304,16.9554204 8.79391304,17.4302683 L8.79391304,20.9963506 C8.79391304,21.4711986 9.18347826,21.8550268 9.66347826,21.8550268 Z" id="Path"></path>
                        <path d="M18.3652174,2.8765653 L0.991304348,2.8765653 C0.511304348,2.8765653 0.12173913,3.26039356 0.12173913,3.7352415 L0.12173913,6.77495528 C0.12173913,7.80021467 0.292173913,8.820322 0.628695652,9.80865832 C1.0173913,10.9326655 1.60869565,11.9639356 2.38521739,12.8732737 C2.97826087,13.5713775 3.67130435,14.1750268 4.45130435,14.6756351 L4.45130435,30.9209302 C4.45130435,33.7622898 6.79565217,36.0729875 9.6773913,36.0729875 C12.3582609,36.0729875 14.5991304,34.045653 14.8591304,31.377746 C14.86,31.3725939 14.8634783,31.3683005 14.8643478,31.3631485 C14.8686957,31.3373882 14.8669565,31.3090519 14.8704348,31.2824329 C14.8721739,31.25839 14.8765217,31.2352057 14.8782609,31.2120215 L14.8782609,31.165653 C14.8843478,31.0823614 14.8956522,31.0007871 14.8956522,30.9200716 C14.8956522,30.8410733 14.8843478,30.7577818 14.8782609,30.6744902 L14.8782609,14.6988193 C15.6617391,14.1947764 16.366087,13.5833989 16.9782609,12.8732737 C17.7382609,11.9802504 18.32,10.9678712 18.7069565,9.86790698 C19.0565217,8.88644007 19.233913,7.84658318 19.233913,6.7740966 L19.233913,3.7352415 C19.2347826,3.26039356 18.846087,2.8765653 18.3652174,2.8765653 Z M1.86086957,4.59391771 L17.4956522,4.59391771 L17.4956522,5.91627907 L1.86086957,5.91627907 L1.86086957,4.59391771 Z M17.066087,9.30118068 C16.7469565,10.2062254 16.2695652,11.0365653 15.6504348,11.7647227 C15.06,12.4499463 14.3617391,13.0252594 13.5730435,13.4760644 C13.3043478,13.6297674 13.1391304,13.9131306 13.1391304,14.2188193 L13.1408696,30.6203936 C13.1408696,30.6229696 13.1391304,30.6255456 13.1391304,30.6289803 L13.1391304,31.1665116 C13.0147826,32.9551342 11.4973913,34.3556351 9.67826087,34.3556351 C7.75565217,34.3556351 6.19130435,32.8151699 6.19130435,30.9209302 L6.19130435,14.1939177 C6.19130435,13.8873703 6.02521739,13.6031485 5.75565217,13.4503041 C4.97304348,13.0046512 4.28782609,12.4396422 3.71652174,11.7681574 C3.07826087,11.0202504 2.59304348,10.1744544 2.27565217,9.25652952 C2.09478261,8.72500894 1.97217391,8.18146691 1.90956522,7.63277281 L17.4486957,7.63277281 C17.3852174,8.20722719 17.2573913,8.76450805 17.066087,9.30118068 Z" id="Shape" fill-rule="nonzero"></path>
                        <path d="M3.15652174,1.73538462 L16.2,1.73538462 C16.6808696,1.73538462 17.0695652,1.35155635 17.0695652,0.876708408 C17.0695652,0.401860465 16.6808696,0.0180322004 16.2,0.0180322004 L3.15652174,0.0180322004 C2.67652174,0.0180322004 2.28695652,0.401860465 2.28695652,0.876708408 C2.28695652,1.35155635 2.67652174,1.73538462 3.15652174,1.73538462 Z" id="Path"></path>
                    </g>
                </g>
            </g>
        </g>
    </g>
</svg>