<?xml version="1.0" encoding="UTF-8"?>
<svg width="142px" height="144px" viewBox="0 0 142 144" version="1.1" xmlns="http://www.w3.org/2000/svg" xmlns:xlink="http://www.w3.org/1999/xlink">
    <!-- Generator: Sketch 52.2 (67145) - http://www.bohemiancoding.com/sketch -->
    <title>Group 3</title>
    <desc>Created with Sketch.</desc>
    <defs>
        <circle id="path-1" cx="50" cy="50" r="50"></circle>
        <filter x="-36.0%" y="-30.0%" width="172.0%" height="172.0%" filterUnits="objectBoundingBox" id="filter-2">
            <feOffset dx="0" dy="6" in="SourceAlpha" result="shadowOffsetOuter1"></feOffset>
            <feGaussianBlur stdDeviation="11" in="shadowOffsetOuter1" result="shadowBlurOuter1"></feGaussianBlur>
            <feColorMatrix values="0 0 0 0 0   0 0 0 0 0   0 0 0 0 0  0 0 0 1 0" type="matrix" in="shadowBlurOuter1"></feColorMatrix>
        </filter>
    </defs>
    <g id="Assets" stroke="none" stroke-width="1" fill="none" fill-rule="evenodd">
        <g id="Group-3" transform="translate(21.000000, 16.000000)">
            <g id="Oval">
                <use fill="black" fill-opacity="1" filter="url(#filter-2)" xlink:href="#path-1"></use>
                <use fill="#FFFFFF" fill-rule="evenodd" xlink:href="#path-1"></use>
            </g>
            <g id="noun_center_462005" transform="translate(25.000000, 25.000000)" fill="#000000" fill-rule="nonzero">
                <g id="Group">
                    <path d="M25,14.4230769 C19.7115385,14.4230769 15.3846154,18.75 15.3846154,24.0384615 C15.3846154,29.3269231 19.7115385,33.6538462 25,33.6538462 C30.2884615,33.6538462 34.6153846,29.3269231 34.6153846,24.0384615 C34.6153846,18.75 30.2884615,14.4230769 25,14.4230769 Z M25,31.7307692 C20.7692308,31.7307692 17.3076923,28.2692308 17.3076923,24.0384615 C17.3076923,19.8076923 20.7692308,16.3461538 25,16.3461538 C29.2307692,16.3461538 32.6923077,19.8076923 32.6923077,24.0384615 C32.6923077,28.2692308 29.2307692,31.7307692 25,31.7307692 Z" id="Shape"></path>
                    <path d="M50,23.0769231 L43.2692308,23.0769231 C42.8846154,13.4615385 35.3846154,6.34615385 25.9615385,5.86538462 L25.9615385,0 L24.0384615,0 L24.0384615,5.86538462 C14.7115385,6.34615385 7.11538462,13.4615385 6.73076923,23.0769231 L0,23.0769231 L0,25 L6.82692308,25 C7.40384615,34.6153846 14.8076923,41.7307692 24.0384615,42.2115385 L24.0384615,49.0384615 L25.9615385,49.0384615 L25.9615385,42.2115385 C35.1923077,41.7307692 42.5961538,34.6153846 43.1730769,25 L50,25 L50,23.0769231 Z M25,40.3846154 C15.9615385,40.3846154 8.65384615,33.0769231 8.65384615,24.0384615 C8.65384615,15 15.9615385,7.69230769 25,7.69230769 C34.0384615,7.69230769 41.3461538,15 41.3461538,24.0384615 C41.3461538,33.0769231 34.0384615,40.3846154 25,40.3846154 Z" id="Shape"></path>
                </g>
            </g>
        </g>
    </g>
</svg>