<?xml version="1.0" encoding="UTF-8"?>
<svg width="148px" height="148px" viewBox="0 0 148 148" version="1.1" xmlns="http://www.w3.org/2000/svg" xmlns:xlink="http://www.w3.org/1999/xlink">
    <!-- Generator: Sketch 52.2 (67145) - http://www.bohemiancoding.com/sketch -->
    <title>Shape</title>
    <desc>Created with Sketch.</desc>
    <g id="Design-Screen" stroke="none" stroke-width="1" fill="none" fill-rule="evenodd">
        <g id="noun_qr_1969514" fill="#1CE7BA" fill-rule="nonzero">
            <path d="M0,0 L49.3333333,0 L49.3333333,49.3333333 L0,49.3333333 L0,0 Z M63.4285714,0 L70.4761905,0 L70.4761905,7.04761905 L77.5238095,7.04761905 L77.5238095,0 L91.6190476,0 L91.6190476,7.04761905 L84.5714286,7.04761905 L84.5714286,14.0952381 L91.6190476,14.0952381 L91.6190476,21.1428571 L84.5714286,21.1428571 L84.5714286,28.1904762 L77.5238095,28.1904762 L77.5238095,14.0952381 L70.4761905,14.0952381 L70.4761905,28.1904762 L63.4285714,28.1904762 L63.4285714,21.1428571 L56.3809524,21.1428571 L56.3809524,14.0952381 L63.4285714,14.0952381 L63.4285714,0 Z M98.6666667,0 L148,0 L148,49.3333333 L98.6666667,49.3333333 L98.6666667,0 Z M7.04761905,7.04761905 L7.04761905,42.2857143 L42.2857143,42.2857143 L42.2857143,7.04761905 L7.04761905,7.04761905 Z M105.714286,7.04761905 L105.714286,42.2857143 L140.952381,42.2857143 L140.952381,7.04761905 L105.714286,7.04761905 Z M14.0952381,14.0952381 L35.2380952,14.0952381 L35.2380952,35.2380952 L14.0952381,35.2380952 L14.0952381,14.0952381 Z M112.761905,14.0952381 L133.904762,14.0952381 L133.904762,35.2380952 L112.761905,35.2380952 L112.761905,14.0952381 Z M70.4761905,28.1904762 L77.5238095,28.1904762 L77.5238095,35.2380952 L70.4761905,35.2380952 L70.4761905,28.1904762 Z M84.5714286,28.1904762 L91.6190476,28.1904762 L91.6190476,56.3809524 L84.5714286,56.3809524 L84.5714286,63.4285714 L77.5238095,63.4285714 L77.5238095,77.5238095 L70.4761905,77.5238095 L70.4761905,63.4285714 L63.4285714,63.4285714 L63.4285714,70.4761905 L56.3809524,70.4761905 L56.3809524,77.5238095 L42.2857143,77.5238095 L42.2857143,84.5714286 L56.3809524,84.5714286 L56.3809524,91.6190476 L35.2380952,91.6190476 L35.2380952,77.5238095 L28.1904762,77.5238095 L28.1904762,70.4761905 L35.2380952,70.4761905 L35.2380952,63.4285714 L28.1904762,63.4285714 L28.1904762,56.3809524 L56.3809524,56.3809524 L56.3809524,42.2857143 L63.4285714,42.2857143 L63.4285714,49.3333333 L70.4761905,49.3333333 L70.4761905,56.3809524 L77.5238095,56.3809524 L77.5238095,49.3333333 L84.5714286,49.3333333 L84.5714286,28.1904762 Z M70.4761905,42.2857143 L77.5238095,42.2857143 L77.5238095,49.3333333 L70.4761905,49.3333333 L70.4761905,42.2857143 Z M0,56.3809524 L21.1428571,56.3809524 L21.1428571,63.4285714 L7.04761905,63.4285714 L7.04761905,70.4761905 L14.0952381,70.4761905 L14.0952381,77.5238095 L28.1904762,77.5238095 L28.1904762,91.6190476 L21.1428571,91.6190476 L21.1428571,84.5714286 L7.04761905,84.5714286 L7.04761905,77.5238095 L0,77.5238095 L0,56.3809524 Z M91.6190476,56.3809524 L105.714286,56.3809524 L105.714286,63.4285714 L91.6190476,63.4285714 L91.6190476,56.3809524 Z M126.857143,56.3809524 L133.904762,56.3809524 L133.904762,63.4285714 L126.857143,63.4285714 L126.857143,56.3809524 Z M42.2857143,63.4285714 L42.2857143,70.4761905 L49.3333333,70.4761905 L49.3333333,63.4285714 L42.2857143,63.4285714 Z M105.714286,63.4285714 L126.857143,63.4285714 L126.857143,70.4761905 L133.904762,70.4761905 L133.904762,63.4285714 L148,63.4285714 L148,105.714286 L105.714286,105.714286 L105.714286,98.6666667 L91.6190476,98.6666667 L91.6190476,91.6190476 L84.5714286,91.6190476 L84.5714286,84.5714286 L98.6666667,84.5714286 L98.6666667,91.6190476 L105.714286,91.6190476 L105.714286,77.5238095 L84.5714286,77.5238095 L84.5714286,70.4761905 L105.714286,70.4761905 L105.714286,63.4285714 Z M63.4285714,77.5238095 L70.4761905,77.5238095 L70.4761905,91.6190476 L84.5714286,91.6190476 L84.5714286,105.714286 L98.6666667,105.714286 L98.6666667,112.761905 L84.5714286,112.761905 L84.5714286,119.809524 L77.5238095,119.809524 L77.5238095,98.6666667 L70.4761905,98.6666667 L70.4761905,119.809524 L56.3809524,119.809524 L56.3809524,91.6190476 L63.4285714,91.6190476 L63.4285714,77.5238095 Z M119.809524,77.5238095 L119.809524,84.5714286 L112.761905,84.5714286 L112.761905,91.6190476 L119.809524,91.6190476 L119.809524,98.6666667 L126.857143,98.6666667 L126.857143,91.6190476 L140.952381,91.6190476 L140.952381,77.5238095 L119.809524,77.5238095 Z M0,98.6666667 L49.3333333,98.6666667 L49.3333333,148 L0,148 L0,98.6666667 Z M7.04761905,105.714286 L7.04761905,140.952381 L42.2857143,140.952381 L42.2857143,105.714286 L7.04761905,105.714286 Z M14.0952381,112.761905 L35.2380952,112.761905 L35.2380952,133.904762 L14.0952381,133.904762 L14.0952381,112.761905 Z M98.6666667,112.761905 L119.809524,112.761905 L119.809524,126.857143 L126.857143,126.857143 L126.857143,133.904762 L119.809524,133.904762 L119.809524,140.952381 L112.761905,140.952381 L112.761905,148 L98.6666667,148 L98.6666667,133.904762 L105.714286,133.904762 L105.714286,126.857143 L112.761905,126.857143 L112.761905,119.809524 L105.714286,119.809524 L105.714286,126.857143 L98.6666667,126.857143 L98.6666667,112.761905 Z M70.4761905,119.809524 L77.5238095,119.809524 L77.5238095,148 L70.4761905,148 L70.4761905,119.809524 Z M126.857143,119.809524 L140.952381,119.809524 L140.952381,126.857143 L126.857143,126.857143 L126.857143,119.809524 Z M56.3809524,126.857143 L63.4285714,126.857143 L63.4285714,148 L56.3809524,148 L56.3809524,126.857143 Z M84.5714286,126.857143 L91.6190476,126.857143 L91.6190476,133.904762 L84.5714286,133.904762 L84.5714286,126.857143 Z M140.952381,126.857143 L148,126.857143 L148,133.904762 L140.952381,133.904762 L140.952381,126.857143 Z M133.904762,133.904762 L140.952381,133.904762 L140.952381,140.952381 L148,140.952381 L148,148 L133.904762,148 L133.904762,133.904762 Z M84.5714286,140.952381 L91.6190476,140.952381 L91.6190476,148 L84.5714286,148 L84.5714286,140.952381 Z" id="Shape"></path>
        </g>
    </g>
</svg>