<?xml version="1.0" encoding="UTF-8"?>
<svg width="100px" height="100px" viewBox="0 0 100 100" version="1.1" xmlns="http://www.w3.org/2000/svg" xmlns:xlink="http://www.w3.org/1999/xlink">
    <!-- Generator: Sketch 52.2 (67145) - http://www.bohemiancoding.com/sketch -->
    <title>Group 2</title>
    <desc>Created with Sketch.</desc>
    <g id="Assets" stroke="none" stroke-width="1" fill="none" fill-rule="evenodd">
        <g id="Group-2">
            <g id="light" fill="#F2F3F4">
                <g id="Group-5">
                    <circle id="Oval" cx="50" cy="50" r="50"></circle>
                </g>
            </g>
            <g id="noun_scan_2082613" transform="translate(38.000000, 39.000000)" fill="#000000" fill-rule="nonzero">
                <path d="M5.4,5 C4.84771525,5 4.4,5.44771525 4.4,6 L4.4,16 C4.4,16.5522847 4.84771525,17 5.4,17 C5.95228475,17 6.4,16.5522847 6.4,16 L6.4,6 C6.4,5.44771525 5.95228475,5 5.4,5 Z M9.8,5 C9.24771525,5 8.8,5.44771525 8.8,6 L8.8,16 C8.8,16.5522847 9.24771525,17 9.8,17 C10.3522847,17 10.8,16.5522847 10.8,16 L10.8,6 C10.8,5.44771525 10.3522847,5 9.8,5 Z M14.2,5 C13.6477153,5 13.2,5.44771525 13.2,6 L13.2,16 C13.2,16.5522847 13.6477153,17 14.2,17 C14.7522847,17 15.2,16.5522847 15.2,16 L15.2,6 C15.2,5.73478351 15.0946432,5.4804296 14.9071068,5.29289322 C14.7195704,5.10535684 14.4652165,5 14.2,5 Z M18.6,5 C18.0477153,5 17.6,5.44771525 17.6,6 L17.6,16 C17.6,16.5522847 18.0477153,17 18.6,17 C19.1522847,17 19.6,16.5522847 19.6,16 L19.6,6 C19.6,5.44771525 19.1522847,5 18.6,5 Z" id="Shape"></path>
                <path d="M5,0.5 L1,0.5 C0.44771525,0.5 0,0.94771525 0,1.5 L0,5.5 C0,6.05228475 0.44771525,6.5 1,6.5 C1.55228475,6.5 2,6.05228475 2,5.5 L2,2.5 L5,2.5 C5.55228475,2.5 6,2.05228475 6,1.5 C6,0.94771525 5.55228475,0.5 5,0.5 Z M23,0.5 L19,0.5 C18.4477153,0.5 18,0.94771525 18,1.5 C18,2.05228475 18.4477153,2.5 19,2.5 L22,2.5 L22,5.5 C22,6.05228475 22.4477153,6.5 23,6.5 C23.5522847,6.5 24,6.05228475 24,5.5 L24,1.5 C24,0.94771525 23.5522847,0.5 23,0.5 Z M23,15.5 C22.4477153,15.5 22,15.9477153 22,16.5 L22,19.5 L19,19.5 C18.4477153,19.5 18,19.9477153 18,20.5 C18,21.0522847 18.4477153,21.5 19,21.5 L23,21.5 C23.5522847,21.5 24,21.0522847 24,20.5 L24,16.5 C24,15.9477153 23.5522847,15.5 23,15.5 Z M5,19.5 L2,19.5 L2,16.5 C2,15.9477153 1.55228475,15.5 1,15.5 C0.44771525,15.5 0,15.9477153 0,16.5 L0,20.5 C0,21.0522847 0.44771525,21.5 1,21.5 L5,21.5 C5.55228475,21.5 6,21.0522847 6,20.5 C6,19.9477153 5.55228475,19.5 5,19.5 Z" id="Shape"></path>
            </g>
        </g>
    </g>
</svg>