<svg xmlns="http://www.w3.org/2000/svg" viewBox="0 0 1000 405" height="405" width="1000">
    <defs>
        <pattern id="a" data-name="2/3 - black" width="5" height="5" patternTransform="translate(-49.1 70.1)" patternUnits="userSpaceOnUse" viewBox="0 0 5 5">
            <path fill="none" d="M0 0h5v5H0z"/>
            <path d="M0 0h2v2H0z"/>
        </pattern>
    </defs>
    <circle cx="781.5" cy="347.5" r="55.5"/>
    <path d="M872.58 329.23l-2.19-2.23a4.14 4.14 0 0 1-.74-1h-14.11a7.13 7.13 0 0 1-7.16-7.11 12.13 12.13 0 0 1 9.93-11.89 79.08 79.08 0 0 0-39.26-26.61l-64.36-19.27a308.1 308.1 0 0 1-62.43-26.48l-78.92-44.3A143.26 143.26 0 0 0 543.22 172H250.86A89.34 89.34 0 0 0 184 202.07l-29.6 33.38a77.09 77.09 0 0 0-19.4 51.14v21.62a12.36 12.36 0 0 1-3.62 8.74l-1.93 1.93a11.79 11.79 0 0 0-3.45 8.34v36.54a18.28 18.28 0 0 0 3.9 11.24h744.38a11.92 11.92 0 0 0 .73-4.09v-35.8a8.31 8.31 0 0 0-2.43-5.88z" fill="#aaa"/>
    <path d="M672.15 238.17l-64.59-36.63A130 130 0 0 0 553 185l59.39 60h58a3.66 3.66 0 0 0 1.76-6.83zM796.74 326h37.52a9.62 9.62 0 0 0 9.74-9.5v-4.75a4.82 4.82 0 0 0-4.88-4.75h-47.24a4.82 4.82 0 0 0-4.88 4.75v4.75a9.62 9.62 0 0 0 9.74 9.5z"/>
    <path d="M848.38 318.89a7.13 7.13 0 0 0 7.16 7.11h14.21a4.08 4.08 0 0 1-.57-2 9 9 0 0 0-1.91-5.54l-8.39-10.75-.55-.68a12.13 12.13 0 0 0-9.95 11.86z" fill="#fff"/>
    <path d="M140.51 308.21a7.5 7.5 0 0 0 7.5-7.5v-14.12a64.09 64.09 0 0 1 16.14-42.52 4.32 4.32 0 0 0-3.23-7.19h-7.71A77.08 77.08 0 0 0 135 286.59v21.62h5.5zM130 375a18.2 18.2 0 0 0 1.57 1.81l2.68 2.68a12 12 0 0 0 8.47 3.51h721a12 12 0 0 0 11.28-8H130z"/>
    <path d="M295 383v-35a64 64 0 1 0-128 0v35"/>
    <circle cx="230.5" cy="347.5" r="55.5"/>
    <circle cx="230.88" cy="347.93" r="37.5" fill="#fff"/>
    <path d="M230.88 322.14v19.16a6.63 6.63 0 0 1 6.63 6.63h19.15a25.78 25.78 0 0 0-25.78-25.79zm-6.62 25.79H205.1a25.78 25.78 0 0 0 25.78 25.78v-19.16a6.63 6.63 0 0 1-6.62-6.62z" fill="#d6d6d6"/>
    <path d="M569 383v-35a64 64 0 1 1 128 0v35"/>
    <circle cx="632.5" cy="347.5" r="55.5"/>
    <circle cx="632.54" cy="347.93" r="37.5" fill="#fff"/>
    <path d="M650.77 329.69l-13.54 13.54a6.63 6.63 0 0 1 0 9.37l13.54 13.54a25.78 25.78 0 0 0 0-36.45zm-22.92 13.55l-13.54-13.54a25.78 25.78 0 0 0 0 36.46l13.54-13.54a6.63 6.63 0 0 1 0-9.38z" fill="#d6d6d6"/>
    <path d="M273.61 244.55h276a3.6 3.6 0 0 0 1.76-6.74L487 201.67A130.53 130.53 0 0 0 423.22 185H300.86a76.34 76.34 0 0 0-57.12 25.69 12.75 12.75 0 0 0 .52 17.47l7.23 7.23a31.27 31.27 0 0 0 22.12 9.16z"/>
    <path d="M501.19 254.09h62.18l-50.23-28.19a8 8 0 0 0-12 7v21.2z" fill="#aaa"/>
    <path d="M349.87 319.88h163.69a40 40 0 0 1 40 40H309.87a40 40 0 0 1 40-40zm-205.87 0a7.87 7.87 0 0 1 7.87 7.87v32.13H144a12.21 12.21 0 0 1-12.21-12.21v-15.58A12.21 12.21 0 0 1 144 319.88z" fill="url(#a)"/>
    <path d="M747 353.2l-8.16 8.16a2.72 2.72 0 0 0 1.92 4.64H875v-15H752.26a7.5 7.5 0 0 0-5.26 2.2z"/>
    <ellipse cx="820.5" cy="316" rx="7.5" ry="4" fill="#fff"/>
    <rect x="796" y="343" width="49" height="17" rx="2.65" ry="2.65" class="illustration-secondary-fill"/>
    <path d="M724.95 312.4l8.37 8.24a18.75 18.75 0 0 0 13.15 5.36h28.39a7.09 7.09 0 0 0 7.14-7 12.07 12.07 0 0 0-12.17-12h-42.61a3.16 3.16 0 0 0-2.27 5.4zM543.61 185H483c3.58 1.65 7.12 3.43 10.57 5.37L572.74 235c6.33 3.57 12.79 6.88 19.34 10h20.31l-59-59.61c-3.26-.25-6.52-.39-9.78-.39z" fill="#fff"/>
</svg>
